<svg width="96" height="96" xmlns="http://www.w3.org/2000/svg" xmlns:xlink="http://www.w3.org/1999/xlink" xml:space="preserve" overflow="hidden"><g transform="translate(-74 -340)"><path d="M152.6 357.005 91.4 357.005C89.5304 357.025 88.0195 358.535 88 360.405L88 401.717C87.9845 403.579 89.4815 405.102 91.3438 405.117 91.3625 405.117 91.3813 405.117 91.4 405.117L128.8 405.117 142.4 419.017 142.4 405.217 152.6 405.217C154.47 405.198 155.98 403.687 156 401.817L156 360.506C156.024 358.602 154.504 357.037 152.6 357.005ZM114.716 388.525C114.714 389.306 114.081 389.938 113.3 389.939L108 389.939 108 375.089 113.3 375.089C114.08 375.09 114.712 375.72 114.716 376.5ZM135.573 381.807C135.565 382.795 134.876 383.646 133.911 383.858 134.301 384.253 134.517 384.788 134.511 385.343 134.508 386.513 133.56 387.461 132.39 387.464L132.178 387.464C132.548 387.841 132.752 388.351 132.744 388.879 132.74 390.048 131.793 390.996 130.624 391L124.261 391C119.524 391 119.347 388.171 116.837 388.171L116.837 376.857C116.943 376.786 123.2 373.745 123.2 368.371 123.2 367.2 124.15 366.25 125.321 366.25 126.492 366.25 127.442 367.2 127.442 368.371 127.519 370.669 127.16 372.96 126.382 375.124 126.411 375.691 126.874 376.14 127.442 376.15L134.159 376.15C135.329 376.153 136.277 377.101 136.28 378.271 136.291 379.158 135.737 379.954 134.901 380.251 135.332 380.653 135.576 381.217 135.573 381.807Z" fill="#5968B0"/></g></svg>