<svg width="96" height="96" xmlns="http://www.w3.org/2000/svg" xmlns:xlink="http://www.w3.org/1999/xlink" xml:space="preserve" overflow="hidden"><g transform="translate(-291 -363)"><path d="M369.6 380.005 308.4 380.005C306.53 380.025 305.02 381.535 305 383.405L305 424.717C304.984 426.579 306.482 428.102 308.344 428.117 308.362 428.117 308.381 428.117 308.4 428.117L345.8 428.117 359.4 442.017 359.4 428.217 369.6 428.217C371.47 428.198 372.98 426.687 373 424.817L373 383.506C373.024 381.602 371.504 380.037 369.6 380.005ZM331.716 411.525C331.714 412.306 331.081 412.938 330.3 412.939L325 412.939 325 398.089 330.3 398.089C331.08 398.09 331.712 398.72 331.716 399.5ZM352.573 404.807C352.565 405.795 351.876 406.646 350.911 406.858 351.301 407.253 351.517 407.788 351.511 408.343 351.508 409.513 350.56 410.461 349.39 410.464L349.178 410.464C349.548 410.841 349.752 411.351 349.744 411.879 349.74 413.048 348.793 413.996 347.624 414L341.261 414C336.524 414 336.347 411.171 333.837 411.171L333.837 399.857C333.943 399.786 340.2 396.745 340.2 391.371 340.2 390.2 341.15 389.25 342.321 389.25 343.492 389.25 344.442 390.2 344.442 391.371 344.519 393.669 344.16 395.96 343.382 398.124 343.411 398.691 343.874 399.14 344.442 399.15L351.159 399.15C352.329 399.153 353.277 400.101 353.28 401.271 353.291 402.158 352.737 402.954 351.901 403.251 352.332 403.653 352.576 404.217 352.573 404.807Z" fill="#821A08"/></g></svg>