<svg width="96" height="96" xmlns="http://www.w3.org/2000/svg" xmlns:xlink="http://www.w3.org/1999/xlink" xml:space="preserve" overflow="hidden"><g transform="translate(-1036 -383)"><path d="M1114.6 400.005 1053.4 400.005C1051.53 400.025 1050.02 401.535 1050 403.405L1050 444.717C1049.98 446.579 1051.48 448.102 1053.34 448.117 1053.36 448.117 1053.38 448.117 1053.4 448.117L1090.8 448.117 1104.4 462.017 1104.4 448.217 1114.6 448.217C1116.47 448.198 1117.98 446.687 1118 444.817L1118 403.506C1118.02 401.602 1116.5 400.037 1114.6 400.005ZM1076.72 431.525C1076.71 432.306 1076.08 432.938 1075.3 432.939L1070 432.939 1070 418.089 1075.3 418.089C1076.08 418.09 1076.71 418.72 1076.72 419.5ZM1097.57 424.807C1097.57 425.795 1096.88 426.646 1095.91 426.858 1096.3 427.253 1096.52 427.788 1096.51 428.343 1096.51 429.513 1095.56 430.461 1094.39 430.464L1094.18 430.464C1094.55 430.841 1094.75 431.351 1094.74 431.879 1094.74 433.048 1093.79 433.996 1092.62 434L1086.26 434C1081.52 434 1081.35 431.171 1078.84 431.171L1078.84 419.857C1078.94 419.786 1085.2 416.745 1085.2 411.371 1085.2 410.2 1086.15 409.25 1087.32 409.25 1088.49 409.25 1089.44 410.2 1089.44 411.371 1089.52 413.669 1089.16 415.96 1088.38 418.124 1088.41 418.691 1088.87 419.14 1089.44 419.15L1096.16 419.15C1097.33 419.153 1098.28 420.101 1098.28 421.271 1098.29 422.158 1097.74 422.954 1096.9 423.251 1097.33 423.653 1097.58 424.217 1097.57 424.807Z" fill="#FFFFFF"/></g></svg>