<svg width="96" height="96" xmlns="http://www.w3.org/2000/svg" xmlns:xlink="http://www.w3.org/1999/xlink" xml:space="preserve" overflow="hidden"><g transform="translate(-1036 -169)"><path d="M1084 213C1079 213 1075 209 1075 204 1075 199 1079 195 1084 195 1089 195 1093 199 1093 204 1093 209 1089 213 1084 213ZM1084 183C1077.1 183 1070.6 186.4 1066.7 192.2 1062.8 197.9 1062 205.2 1064.5 211.7L1074 232.7 1082.2 249.9C1082.5 250.6 1083.2 251 1084 251 1084.8 251 1085.5 250.6 1085.8 249.9L1094 232.7 1103.5 211.7C1106 205.2 1105.2 197.9 1101.3 192.2 1097.4 186.4 1090.9 183 1084 183Z" fill="#FFFFFF"/></g></svg>