<svg width="96" height="96" xmlns="http://www.w3.org/2000/svg" xmlns:xlink="http://www.w3.org/1999/xlink" xml:space="preserve" overflow="hidden"><g transform="translate(-74 -160)"><path d="M122 204C117 204 113 200 113 195 113 190 117 186 122 186 127 186 131 190 131 195 131 200 127 204 122 204ZM122 174C115.1 174 108.6 177.4 104.7 183.2 100.8 188.9 100 196.2 102.5 202.7L112 223.7 120.2 240.9C120.5 241.6 121.2 242 122 242 122.8 242 123.5 241.6 123.8 240.9L132 223.7 141.5 202.7C144 196.2 143.2 188.9 139.3 183.2 135.4 177.4 128.9 174 122 174Z" fill="#5968B0"/></g></svg>