<svg width="96" height="96" xmlns="http://www.w3.org/2000/svg" xmlns:xlink="http://www.w3.org/1999/xlink" xml:space="preserve" overflow="hidden"><g transform="translate(-291 -179)"><path d="M339 223C334 223 330 219 330 214 330 209 334 205 339 205 344 205 348 209 348 214 348 219 344 223 339 223ZM339 193C332.1 193 325.6 196.4 321.7 202.2 317.8 207.9 317 215.2 319.5 221.7L329 242.7 337.2 259.9C337.5 260.6 338.2 261 339 261 339.8 261 340.5 260.6 340.8 259.9L349 242.7 358.5 221.7C361 215.2 360.2 207.9 356.3 202.2 352.4 196.4 345.9 193 339 193Z" fill="#821A08"/></g></svg>