<svg width="96" height="96" xmlns="http://www.w3.org/2000/svg" xmlns:xlink="http://www.w3.org/1999/xlink" xml:space="preserve" overflow="hidden"><g transform="translate(-74 -250)"><path d="M110.535 318.142C110.534 320.65 112.567 322.683 115.075 322.684 117.583 322.685 119.616 320.652 119.617 318.144 119.618 315.636 117.585 313.603 115.077 313.602 115.076 313.602 115.076 313.602 115.075 313.602 112.568 313.603 110.536 315.635 110.535 318.142ZM117.616 318.142C117.617 319.545 116.479 320.683 115.076 320.684 113.673 320.685 112.535 319.547 112.534 318.144 112.533 316.741 113.671 315.603 115.074 315.602 115.075 315.602 115.075 315.602 115.076 315.602 116.478 315.604 117.614 316.74 117.616 318.142Z" fill="#5968B0"/><path d="M123.107 326.653C121.802 325.647 120.309 324.913 118.716 324.493 117.514 324.124 116.263 323.935 115.005 323.933 113.749 323.952 112.501 324.14 111.295 324.493 109.719 324.959 108.235 325.689 106.904 326.653 106.349 327.092 106.019 327.755 106.004 328.463L106.004 333 124.004 333 124.004 328.46C123.989 327.754 123.66 327.092 123.107 326.653ZM122.007 331 108 331 108 328.5C108.002 328.398 108.046 328.302 108.121 328.233 109.254 327.421 110.515 326.803 111.852 326.407 112.88 326.107 113.944 325.946 115.015 325.928 116.069 325.931 117.117 326.09 118.125 326.4L118.202 326.422C119.53 326.769 120.775 327.38 121.863 328.217 121.94 328.275 121.99 328.362 122.003 328.458Z" fill="#5968B0"/><path d="M130.4 318.142C130.399 320.65 132.432 322.683 134.94 322.684 137.448 322.685 139.482 320.652 139.482 318.144 139.483 315.636 137.45 313.603 134.942 313.602 134.942 313.602 134.941 313.602 134.941 313.602 132.434 313.603 130.401 315.635 130.4 318.142ZM137.482 318.142C137.483 319.545 136.345 320.683 134.942 320.684 133.539 320.685 132.401 319.547 132.4 318.144 132.399 316.741 133.537 315.603 134.94 315.602 134.94 315.602 134.941 315.602 134.941 315.602 136.342 315.605 137.477 316.741 137.479 318.142Z" fill="#5968B0"/><path d="M143.109 326.653C141.804 325.647 140.312 324.913 138.719 324.493 137.516 324.124 136.266 323.935 135.008 323.933 133.752 323.952 132.504 324.14 131.298 324.493 129.722 324.959 128.238 325.689 126.907 326.653 126.352 327.092 126.022 327.755 126.007 328.463L126.007 333 144.007 333 144.007 328.46C143.992 327.754 143.663 327.091 143.109 326.653ZM142.009 331 128.009 331 128.009 328.5C128.011 328.398 128.055 328.301 128.131 328.233 129.264 327.42 130.524 326.803 131.861 326.407 132.889 326.107 133.953 325.946 135.024 325.928 136.079 325.931 137.127 326.09 138.135 326.4L138.212 326.422C139.54 326.769 140.785 327.379 141.872 328.217 141.949 328.275 141.999 328.362 142.012 328.458Z" fill="#5968B0"/><path d="M150.4 318.142C150.4 320.65 152.432 322.683 154.94 322.684 157.448 322.685 159.482 320.652 159.482 318.144 159.483 315.636 157.45 313.603 154.942 313.602 154.942 313.602 154.941 313.602 154.941 313.602 152.434 313.603 150.401 315.635 150.4 318.142ZM157.481 318.142C157.482 319.545 156.344 320.683 154.941 320.684 153.538 320.685 152.4 319.547 152.399 318.144 152.398 316.741 153.536 315.603 154.939 315.602 154.94 315.602 154.94 315.602 154.941 315.602 156.343 315.604 157.479 316.74 157.481 318.142Z" fill="#5968B0"/><path d="M163.112 326.653C161.807 325.647 160.314 324.913 158.721 324.493 157.519 324.124 156.269 323.935 155.011 323.933 153.754 323.952 152.506 324.14 151.3 324.493 149.725 324.959 148.24 325.689 146.91 326.653 146.354 327.091 146.024 327.755 146.01 328.463L146.01 333 164.01 333 164.01 328.46C163.995 327.754 163.666 327.091 163.112 326.653ZM162.012 331 148.012 331 148.012 328.5C148.014 328.398 148.057 328.302 148.133 328.233 149.266 327.421 150.527 326.803 151.864 326.407 152.892 326.107 153.956 325.946 155.027 325.928 156.081 325.931 157.129 326.09 158.137 326.4L158.214 326.422C159.542 326.769 160.787 327.38 161.875 328.217 161.952 328.275 162.002 328.362 162.015 328.458Z" fill="#5968B0"/><path d="M98 263C98 261.895 98.8954 261 100 261L151 261C152.105 261 153 261.895 153 263L153 297C153 298.105 152.105 299 151 299L117.163 299 115.952 301 151 301C153.209 301 155 299.209 155 297L155 263C155 260.791 153.209 259 151 259L100 259C97.7909 259 96 260.791 96 263L96 267.033C96.6785 267.079 97.3495 267.203 98 267.401Z" fill="#5968B0"/><path d="M107.9 297.131C108.285 297.177 108.661 296.997 108.867 296.669L113.159 289.823C113.628 289.081 114.61 288.859 115.352 289.328 115.378 289.344 115.403 289.361 115.427 289.378 116.118 289.936 116.262 290.932 115.759 291.664L110.52 300.317C109.986 301.197 108.859 301.506 107.951 301.023 107.463 300.763 106.858 300.948 106.598 301.436 106.338 301.924 106.523 302.529 107.011 302.789 108.856 303.771 111.147 303.141 112.23 301.353L117.459 292.717C118.278 291.451 118.253 289.816 117.394 288.577L130.076 275.658C130.457 275.258 130.442 274.625 130.042 274.244 129.65 273.871 129.032 273.877 128.648 274.258L115.807 287.338C115.172 287.085 114.478 287.019 113.807 287.149 112.84 287.343 111.993 287.923 111.464 288.756L108.3 293.805 106.453 288.217 106.388 288.063C104.9 284.647 101.355 284 95.344 284 89.333 284 85.792 284.647 84.292 288.073 84.292 288.073 84.252 288.157 84.232 288.214 84.2057 288.282 84.1847 288.353 84.169 288.424L80.678 307.509C80.261 309.283 81.3612 311.06 83.1354 311.477 83.2157 311.495 83.2966 311.511 83.378 311.524L83.678 311.571C83.7302 311.579 83.7831 311.583 83.836 311.583 84.388 311.566 84.8216 311.104 84.8045 310.552 84.7899 310.082 84.449 309.685 83.986 309.6L83.686 309.552C83.3285 309.497 83.0105 309.294 82.81 308.993 82.6016 308.677 82.5379 308.288 82.635 307.922L86.116 288.896 86.127 288.868C86.942 287.007 88.651 286 95.344 286 102.037 286 103.744 287.007 104.553 288.851L107.071 296.451C107.192 296.819 107.515 297.084 107.9 297.131Z" fill="#5968B0"/><path d="M102 293.42C101.448 293.42 101 293.868 101 294.42L101 335 96.5 335 96.5 310.148 94.5 310.148 94.5 335 90 335 90 294.42C90 293.868 89.5523 293.42 89 293.42 88.4477 293.42 88 293.868 88 294.42L88 337 103 337 103 294.42C103 293.868 102.552 293.42 102 293.42Z" fill="#5968B0"/><path d="M95.344 282C98.6577 282 101.344 279.314 101.344 276 101.344 272.686 98.6577 270 95.344 270 92.0303 270 89.344 272.686 89.344 276 89.3479 279.312 92.0319 281.996 95.344 282ZM95.344 272C97.5531 272 99.344 273.791 99.344 276 99.344 278.209 97.5531 280 95.344 280 93.1349 280 91.344 278.209 91.344 276 91.344 273.791 93.1349 272 95.344 272Z" fill="#5968B0"/></g></svg>