<svg width="96" height="96" xmlns="http://www.w3.org/2000/svg" xmlns:xlink="http://www.w3.org/1999/xlink" xml:space="preserve" overflow="hidden"><g transform="translate(-1036 -276)"><path d="M1072.54 344.142C1072.53 346.65 1074.57 348.683 1077.07 348.684 1079.58 348.685 1081.62 346.652 1081.62 344.144 1081.62 341.636 1079.58 339.603 1077.08 339.602 1077.08 339.602 1077.08 339.602 1077.07 339.602 1074.57 339.603 1072.54 341.635 1072.54 344.142ZM1079.62 344.142C1079.62 345.545 1078.48 346.683 1077.08 346.684 1075.67 346.685 1074.53 345.547 1074.53 344.144 1074.53 342.741 1075.67 341.603 1077.07 341.602 1077.07 341.602 1077.08 341.602 1077.08 341.602 1078.48 341.604 1079.61 342.74 1079.62 344.142Z" fill="#FFFFFF"/><path d="M1085.11 352.653C1083.8 351.647 1082.31 350.913 1080.72 350.493 1079.51 350.124 1078.26 349.935 1077.01 349.933 1075.75 349.952 1074.5 350.14 1073.3 350.493 1071.72 350.959 1070.23 351.689 1068.9 352.653 1068.35 353.092 1068.02 353.755 1068 354.463L1068 359 1086 359 1086 354.46C1085.99 353.754 1085.66 353.092 1085.11 352.653ZM1084.01 357 1070 357 1070 354.5C1070 354.398 1070.05 354.302 1070.12 354.233 1071.25 353.421 1072.52 352.803 1073.85 352.407 1074.88 352.107 1075.94 351.946 1077.02 351.928 1078.07 351.931 1079.12 352.09 1080.12 352.4L1080.2 352.422C1081.53 352.769 1082.78 353.38 1083.86 354.217 1083.94 354.275 1083.99 354.362 1084 354.458Z" fill="#FFFFFF"/><path d="M1092.4 344.142C1092.4 346.65 1094.43 348.683 1096.94 348.684 1099.45 348.685 1101.48 346.652 1101.48 344.144 1101.48 341.636 1099.45 339.603 1096.94 339.602 1096.94 339.602 1096.94 339.602 1096.94 339.602 1094.43 339.603 1092.4 341.635 1092.4 344.142ZM1099.48 344.142C1099.48 345.545 1098.35 346.683 1096.94 346.684 1095.54 346.685 1094.4 345.547 1094.4 344.144 1094.4 342.741 1095.54 341.603 1096.94 341.602 1096.94 341.602 1096.94 341.602 1096.94 341.602 1098.34 341.605 1099.48 342.741 1099.48 344.142Z" fill="#FFFFFF"/><path d="M1105.11 352.653C1103.8 351.647 1102.31 350.913 1100.72 350.493 1099.52 350.124 1098.27 349.935 1097.01 349.933 1095.75 349.952 1094.5 350.14 1093.3 350.493 1091.72 350.959 1090.24 351.689 1088.91 352.653 1088.35 353.092 1088.02 353.755 1088.01 354.463L1088.01 359 1106.01 359 1106.01 354.46C1105.99 353.754 1105.66 353.091 1105.11 352.653ZM1104.01 357 1090.01 357 1090.01 354.5C1090.01 354.398 1090.06 354.301 1090.13 354.233 1091.26 353.42 1092.52 352.803 1093.86 352.407 1094.89 352.107 1095.95 351.946 1097.02 351.928 1098.08 351.931 1099.13 352.09 1100.14 352.4L1100.21 352.422C1101.54 352.769 1102.78 353.379 1103.87 354.217 1103.95 354.275 1104 354.362 1104.01 354.458Z" fill="#FFFFFF"/><path d="M1112.4 344.142C1112.4 346.65 1114.43 348.683 1116.94 348.684 1119.45 348.685 1121.48 346.652 1121.48 344.144 1121.48 341.636 1119.45 339.603 1116.94 339.602 1116.94 339.602 1116.94 339.602 1116.94 339.602 1114.43 339.603 1112.4 341.635 1112.4 344.142ZM1119.48 344.142C1119.48 345.545 1118.34 346.683 1116.94 346.684 1115.54 346.685 1114.4 345.547 1114.4 344.144 1114.4 342.741 1115.54 341.603 1116.94 341.602 1116.94 341.602 1116.94 341.602 1116.94 341.602 1118.34 341.604 1119.48 342.74 1119.48 344.142Z" fill="#FFFFFF"/><path d="M1125.11 352.653C1123.81 351.647 1122.31 350.913 1120.72 350.493 1119.52 350.124 1118.27 349.935 1117.01 349.933 1115.75 349.952 1114.51 350.14 1113.3 350.493 1111.72 350.959 1110.24 351.689 1108.91 352.653 1108.35 353.091 1108.02 353.755 1108.01 354.463L1108.01 359 1126.01 359 1126.01 354.46C1125.99 353.754 1125.67 353.091 1125.11 352.653ZM1124.01 357 1110.01 357 1110.01 354.5C1110.01 354.398 1110.06 354.302 1110.13 354.233 1111.27 353.421 1112.53 352.803 1113.86 352.407 1114.89 352.107 1115.96 351.946 1117.03 351.928 1118.08 351.931 1119.13 352.09 1120.14 352.4L1120.21 352.422C1121.54 352.769 1122.79 353.38 1123.88 354.217 1123.95 354.275 1124 354.362 1124.02 354.458Z" fill="#FFFFFF"/><path d="M1060 289C1060 287.895 1060.9 287 1062 287L1113 287C1114.1 287 1115 287.895 1115 289L1115 323C1115 324.105 1114.1 325 1113 325L1079.16 325 1077.95 327 1113 327C1115.21 327 1117 325.209 1117 323L1117 289C1117 286.791 1115.21 285 1113 285L1062 285C1059.79 285 1058 286.791 1058 289L1058 293.033C1058.68 293.079 1059.35 293.203 1060 293.401Z" fill="#FFFFFF"/><path d="M1069.9 323.131C1070.28 323.177 1070.66 322.997 1070.87 322.669L1075.16 315.823C1075.63 315.081 1076.61 314.859 1077.35 315.328 1077.38 315.344 1077.4 315.361 1077.43 315.378 1078.12 315.936 1078.26 316.932 1077.76 317.664L1072.52 326.317C1071.99 327.197 1070.86 327.506 1069.95 327.023 1069.46 326.763 1068.86 326.948 1068.6 327.436 1068.34 327.924 1068.52 328.529 1069.01 328.789 1070.86 329.771 1073.15 329.141 1074.23 327.353L1079.46 318.717C1080.28 317.451 1080.25 315.816 1079.39 314.577L1092.08 301.658C1092.46 301.258 1092.44 300.625 1092.04 300.244 1091.65 299.871 1091.03 299.877 1090.65 300.258L1077.81 313.338C1077.17 313.085 1076.48 313.019 1075.81 313.149 1074.84 313.343 1073.99 313.923 1073.46 314.756L1070.3 319.805 1068.45 314.217 1068.39 314.063C1066.9 310.647 1063.35 310 1057.34 310 1051.33 310 1047.79 310.647 1046.29 314.073 1046.29 314.073 1046.25 314.157 1046.23 314.214 1046.21 314.282 1046.18 314.353 1046.17 314.424L1042.68 333.509C1042.26 335.283 1043.36 337.06 1045.14 337.477 1045.22 337.495 1045.3 337.511 1045.38 337.524L1045.68 337.571C1045.73 337.579 1045.78 337.583 1045.84 337.583 1046.39 337.566 1046.82 337.104 1046.8 336.552 1046.79 336.082 1046.45 335.685 1045.99 335.6L1045.69 335.552C1045.33 335.497 1045.01 335.294 1044.81 334.993 1044.6 334.677 1044.54 334.288 1044.64 333.922L1048.12 314.896 1048.13 314.868C1048.94 313.007 1050.65 312 1057.34 312 1064.04 312 1065.74 313.007 1066.55 314.851L1069.07 322.451C1069.19 322.819 1069.52 323.084 1069.9 323.131Z" fill="#FFFFFF"/><path d="M1064 319.42C1063.45 319.42 1063 319.868 1063 320.42L1063 361 1058.5 361 1058.5 336.148 1056.5 336.148 1056.5 361 1052 361 1052 320.42C1052 319.868 1051.55 319.42 1051 319.42 1050.45 319.42 1050 319.868 1050 320.42L1050 363 1065 363 1065 320.42C1065 319.868 1064.55 319.42 1064 319.42Z" fill="#FFFFFF"/><path d="M1057.34 308C1060.66 308 1063.34 305.314 1063.34 302 1063.34 298.686 1060.66 296 1057.34 296 1054.03 296 1051.34 298.686 1051.34 302 1051.35 305.312 1054.03 307.996 1057.34 308ZM1057.34 298C1059.55 298 1061.34 299.791 1061.34 302 1061.34 304.209 1059.55 306 1057.34 306 1055.13 306 1053.34 304.209 1053.34 302 1053.34 299.791 1055.13 298 1057.34 298Z" fill="#FFFFFF"/></g></svg>