<svg width="96" height="96" xmlns="http://www.w3.org/2000/svg" xmlns:xlink="http://www.w3.org/1999/xlink" xml:space="preserve" overflow="hidden"><g transform="translate(-291 -267)"><path d="M327.535 335.142C327.534 337.65 329.567 339.683 332.075 339.684 334.583 339.685 336.616 337.652 336.617 335.144 336.618 332.636 334.585 330.603 332.077 330.602 332.076 330.602 332.076 330.602 332.075 330.602 329.568 330.603 327.536 332.635 327.535 335.142ZM334.616 335.142C334.617 336.545 333.479 337.683 332.076 337.684 330.673 337.685 329.535 336.547 329.534 335.144 329.533 333.741 330.671 332.603 332.074 332.602 332.075 332.602 332.075 332.602 332.076 332.602 333.478 332.604 334.614 333.74 334.616 335.142Z" fill="#821A08"/><path d="M340.107 343.653C338.802 342.647 337.309 341.913 335.716 341.493 334.513 341.124 333.263 340.935 332.005 340.933 330.749 340.952 329.501 341.14 328.295 341.493 326.72 341.959 325.235 342.689 323.904 343.653 323.349 344.092 323.019 344.755 323.004 345.463L323.004 350 341.004 350 341.004 345.46C340.989 344.754 340.66 344.092 340.107 343.653ZM339.007 348 325 348 325 345.5C325.002 345.398 325.046 345.302 325.121 345.233 326.254 344.421 327.515 343.803 328.852 343.407 329.88 343.107 330.944 342.946 332.015 342.928 333.069 342.931 334.117 343.09 335.125 343.4L335.202 343.422C336.53 343.769 337.775 344.38 338.863 345.217 338.94 345.275 338.99 345.362 339.003 345.458Z" fill="#821A08"/><path d="M347.4 335.142C347.399 337.65 349.432 339.683 351.94 339.684 354.448 339.685 356.482 337.652 356.482 335.144 356.483 332.636 354.45 330.603 351.942 330.602 351.942 330.602 351.941 330.602 351.941 330.602 349.434 330.603 347.401 332.635 347.4 335.142ZM354.482 335.142C354.483 336.545 353.345 337.683 351.942 337.684 350.539 337.685 349.401 336.547 349.4 335.144 349.399 333.741 350.537 332.603 351.94 332.602 351.94 332.602 351.941 332.602 351.941 332.602 353.342 332.605 354.477 333.741 354.479 335.142Z" fill="#821A08"/><path d="M360.109 343.653C358.804 342.647 357.312 341.913 355.719 341.493 354.517 341.124 353.266 340.935 352.008 340.933 350.752 340.952 349.504 341.14 348.298 341.493 346.722 341.959 345.238 342.689 343.907 343.653 343.352 344.092 343.022 344.755 343.007 345.463L343.007 350 361.007 350 361.007 345.46C360.992 344.754 360.663 344.091 360.109 343.653ZM359.009 348 345.009 348 345.009 345.5C345.011 345.398 345.055 345.301 345.131 345.233 346.264 344.42 347.524 343.803 348.861 343.407 349.889 343.107 350.953 342.946 352.024 342.928 353.079 342.931 354.127 343.09 355.135 343.4L355.212 343.422C356.54 343.769 357.785 344.379 358.872 345.217 358.949 345.275 358.999 345.362 359.012 345.458Z" fill="#821A08"/><path d="M367.4 335.142C367.4 337.65 369.432 339.683 371.94 339.684 374.448 339.685 376.482 337.652 376.482 335.144 376.483 332.636 374.45 330.603 371.942 330.602 371.942 330.602 371.941 330.602 371.941 330.602 369.434 330.603 367.401 332.635 367.4 335.142ZM374.481 335.142C374.482 336.545 373.344 337.683 371.941 337.684 370.538 337.685 369.4 336.547 369.399 335.144 369.398 333.741 370.536 332.603 371.939 332.602 371.94 332.602 371.94 332.602 371.941 332.602 373.343 332.604 374.479 333.74 374.481 335.142Z" fill="#821A08"/><path d="M380.112 343.653C378.807 342.647 377.314 341.913 375.721 341.493 374.519 341.124 373.269 340.935 372.011 340.933 370.754 340.952 369.506 341.14 368.3 341.493 366.725 341.959 365.24 342.689 363.91 343.653 363.354 344.091 363.024 344.755 363.01 345.463L363.01 350 381.01 350 381.01 345.46C380.995 344.754 380.666 344.091 380.112 343.653ZM379.012 348 365.012 348 365.012 345.5C365.014 345.398 365.057 345.302 365.133 345.233 366.266 344.421 367.527 343.803 368.864 343.407 369.892 343.107 370.956 342.946 372.027 342.928 373.081 342.931 374.129 343.09 375.137 343.4L375.214 343.422C376.542 343.769 377.787 344.38 378.875 345.217 378.952 345.275 379.002 345.362 379.015 345.458Z" fill="#821A08"/><path d="M315 280C315 278.895 315.895 278 317 278L368 278C369.105 278 370 278.895 370 280L370 314C370 315.105 369.105 316 368 316L334.163 316 332.952 318 368 318C370.209 318 372 316.209 372 314L372 280C372 277.791 370.209 276 368 276L317 276C314.791 276 313 277.791 313 280L313 284.033C313.678 284.079 314.349 284.203 315 284.401Z" fill="#821A08"/><path d="M324.9 314.131C325.285 314.177 325.661 313.997 325.867 313.669L330.159 306.823C330.628 306.081 331.61 305.859 332.352 306.328 332.378 306.344 332.403 306.361 332.427 306.378 333.118 306.936 333.263 307.932 332.759 308.664L327.52 317.317C326.987 318.197 325.859 318.506 324.951 318.023 324.463 317.763 323.858 317.948 323.598 318.436 323.338 318.924 323.523 319.529 324.011 319.789 325.856 320.771 328.147 320.141 329.23 318.353L334.459 309.717C335.278 308.451 335.253 306.816 334.394 305.577L347.076 292.658C347.457 292.258 347.442 291.625 347.042 291.244 346.65 290.871 346.032 290.877 345.648 291.258L332.807 304.338C332.172 304.085 331.478 304.019 330.807 304.149 329.84 304.343 328.993 304.923 328.464 305.756L325.3 310.805 323.453 305.217 323.388 305.063C321.9 301.647 318.355 301 312.344 301 306.333 301 302.792 301.647 301.292 305.073 301.292 305.073 301.252 305.157 301.232 305.214 301.206 305.282 301.185 305.353 301.169 305.424L297.678 324.509C297.261 326.283 298.361 328.06 300.135 328.477 300.216 328.495 300.297 328.511 300.378 328.524L300.678 328.571C300.73 328.579 300.783 328.583 300.836 328.583 301.388 328.566 301.822 328.104 301.805 327.552 301.79 327.082 301.449 326.685 300.986 326.6L300.686 326.552C300.328 326.497 300.011 326.294 299.81 325.993 299.602 325.677 299.538 325.288 299.635 324.922L303.116 305.896 303.127 305.868C303.942 304.007 305.651 303 312.344 303 319.037 303 320.744 304.007 321.553 305.851L324.071 313.451C324.192 313.819 324.515 314.084 324.9 314.131Z" fill="#821A08"/><path d="M319 310.42C318.448 310.42 318 310.868 318 311.42L318 352 313.5 352 313.5 327.148 311.5 327.148 311.5 352 307 352 307 311.42C307 310.868 306.552 310.42 306 310.42 305.448 310.42 305 310.868 305 311.42L305 354 320 354 320 311.42C320 310.868 319.552 310.42 319 310.42Z" fill="#821A08"/><path d="M312.344 299C315.658 299 318.344 296.314 318.344 293 318.344 289.686 315.658 287 312.344 287 309.03 287 306.344 289.686 306.344 293 306.348 296.312 309.032 298.996 312.344 299ZM312.344 289C314.553 289 316.344 290.791 316.344 293 316.344 295.209 314.553 297 312.344 297 310.135 297 308.344 295.209 308.344 293 308.344 290.791 310.135 289 312.344 289Z" fill="#821A08"/></g></svg>