<svg width="96" height="96" xmlns="http://www.w3.org/2000/svg" xmlns:xlink="http://www.w3.org/1999/xlink" xml:space="preserve" overflow="hidden"><g transform="translate(-1036 -61)"><path d="M1121.5 136.6 1109 124.1C1107.3 122.4 1105 121.8 1102.8 122.2L1098.4 117.8C1102.3 112.8 1104.6 106.4 1104.6 99.6 1104.6 83.1 1091.1 69.6 1074.6 69.6 1058.1 69.6 1044.6 83.1 1044.6 99.6 1044.6 116.1 1058.1 129.6 1074.6 129.6 1081.4 129.6 1087.7 127.3 1092.8 123.4L1097.2 127.8C1096.8 130 1097.4 132.3 1099.1 134L1111.6 146.5C1113 147.9 1114.8 148.6 1116.6 148.6 1118.4 148.6 1120.2 147.9 1121.6 146.5 1124.2 143.7 1124.2 139.3 1121.5 136.6ZM1074.5 123.5C1061.3 123.5 1050.5 112.7 1050.5 99.5 1050.5 86.3 1061.3 75.5 1074.5 75.5 1087.7 75.5 1098.5 86.3 1098.5 99.5 1098.5 112.7 1087.7 123.5 1074.5 123.5Z" fill="#FFFFFF"/></g></svg>