<svg width="96" height="96" xmlns="http://www.w3.org/2000/svg" xmlns:xlink="http://www.w3.org/1999/xlink" xml:space="preserve" overflow="hidden"><g transform="translate(-74 -74)"><path d="M159.5 149.6 147 137.1C145.3 135.4 143 134.8 140.8 135.2L136.4 130.8C140.3 125.8 142.6 119.4 142.6 112.6 142.6 96.1 129.1 82.6 112.6 82.6 96.1 82.6 82.6 96.1 82.6 112.6 82.6 129.1 96.1 142.6 112.6 142.6 119.4 142.6 125.7 140.3 130.8 136.4L135.2 140.8C134.8 143 135.4 145.3 137.1 147L149.6 159.5C151 160.9 152.8 161.6 154.6 161.6 156.4 161.6 158.2 160.9 159.6 159.5 162.2 156.7 162.2 152.3 159.5 149.6ZM112.5 136.5C99.3 136.5 88.5 125.7 88.5 112.5 88.5 99.3 99.3 88.5 112.5 88.5 125.7 88.5 136.5 99.3 136.5 112.5 136.5 125.7 125.7 136.5 112.5 136.5Z" fill="#5968B0"/></g></svg>