<svg width="96" height="96" xmlns="http://www.w3.org/2000/svg" xmlns:xlink="http://www.w3.org/1999/xlink" xml:space="preserve" overflow="hidden"><g transform="translate(-291 -94)"><path d="M376.5 169.6 364 157.1C362.3 155.4 360 154.8 357.8 155.2L353.4 150.8C357.3 145.8 359.6 139.4 359.6 132.6 359.6 116.1 346.1 102.6 329.6 102.6 313.1 102.6 299.6 116.1 299.6 132.6 299.6 149.1 313.1 162.6 329.6 162.6 336.4 162.6 342.7 160.3 347.8 156.4L352.2 160.8C351.8 163 352.4 165.3 354.1 167L366.6 179.5C368 180.9 369.8 181.6 371.6 181.6 373.4 181.6 375.2 180.9 376.6 179.5 379.2 176.7 379.2 172.3 376.5 169.6ZM329.5 156.5C316.3 156.5 305.5 145.7 305.5 132.5 305.5 119.3 316.3 108.5 329.5 108.5 342.7 108.5 353.5 119.3 353.5 132.5 353.5 145.7 342.7 156.5 329.5 156.5Z" fill="#821A08"/></g></svg>